<svg height="512pt" viewBox="-82 0 512 512.001" width="512pt" xmlns="http://www.w3.org/2000/svg"><path d="m173.921875 179.058594c-4.710937-1.859375-7.84375-6.359375-7.84375-11.421875v-11.023438h-76.875v11.023438c0 5.0625-3.136719 9.5625-7.847656 11.421875-47.726563 18.839844-81.355469 65.914062-81.355469 120.269531v186.324219c0 14.550781 11.796875 26.347656 26.34375 26.347656h202.585938c14.550781 0 26.347656-11.796875 26.347656-26.347656v-186.324219c0-54.355469-33.628906-101.425781-81.355469-120.269531zm0 0" fill="#eceff1"/><path d="m173.921875 179.058594c-4.710937-1.859375-7.84375-6.359375-7.84375-11.421875v-11.023438h-36.050781c1.113281 1.03125 2.429687 1.867188 3.894531 2.445313 47.726563 18.839844 81.355469 65.914062 81.355469 120.269531v104.726563c0 59.617187-48.328125 107.945312-107.941406 107.945312h-106.5625c2.84375 11.484375 13.210937 20 25.570312 20h202.585938c14.550781 0 26.347656-11.796875 26.347656-26.347656v-186.324219c0-54.355469-33.628906-101.425781-81.355469-120.269531zm0 0" fill="#b0bec5"/><path d="m198.507812 457.363281h-141.738281c-6.828125 0-12.363281-5.535156-12.363281-12.363281v-147.074219c0-45.972656 37.261719-83.234375 83.230469-83.234375 45.972656 0 83.234375 37.261719 83.234375 83.234375v147.074219c0 6.828125-5.535156 12.363281-12.363282 12.363281zm0 0" fill="#64b5f6"/><path d="m143.492188 216.21875c16.816406 15.226562 27.378906 37.230469 27.378906 61.707031v90.855469c0 37.878906-30.703125 68.582031-68.582032 68.582031h-57.882812v7.636719c0 6.828125 5.535156 12.363281 12.363281 12.363281h141.738281c6.828126 0 12.363282-5.535156 12.363282-12.363281v-147.074219c0-40.546875-28.996094-74.304687-67.378906-81.707031zm0 0" fill="#2196f3"/><g fill="#eceff1"><path d="m94.664062 340.242188c.640626 9.144531 7.90625 16.296874 17.058594 16.8125 2.632813.144531 5.152344-.269532 7.445313-1.136719 5.472656-2.066407 11.46875-2.066407 16.941406 0 2.292969.867187 4.8125 1.28125 7.445313 1.136719 9.152343-.515626 16.417968-7.667969 17.058593-16.8125.390625-5.546876-1.714843-10.605469-5.304687-14.175782l-10.527344-10.769531c-9.40625-9.621094-24.882812-9.621094-34.285156 0-10.734375 10.976563-10.550782 10.761719-10.53125 10.769531-3.585938 3.570313-5.691406 8.628906-5.300782 14.175782zm0 0"/><path d="m86.292969 295.6875c-3.738281-6.476562-10.730469-9.441406-15.613281-6.621094-4.882813 2.820313-5.8125 10.355469-2.074219 16.832032 3.738281 6.476562 10.730469 9.441406 15.613281 6.621093 4.886719-2.820312 5.8125-10.359375 2.074219-16.832031zm0 0"/><path d="m118.546875 272.621094c-2.167969-8.101563-8.878906-13.339844-14.988281-11.703125s-9.300782 9.53125-7.132813 17.628906c2.171875 8.097656 8.882813 13.335937 14.992188 11.699219 6.105469-1.636719 9.300781-9.527344 7.128906-17.625zm0 0"/><path d="m184.585938 289.082031c-4.882813-2.820312-11.875.140625-15.613282 6.617188-3.738281 6.476562-2.8125 14.011719 2.074219 16.832031 4.882813 2.820312 11.875-.140625 15.613281-6.617188 3.738282-6.476562 2.8125-14.011718-2.074218-16.832031zm0 0"/></g><path d="m184.59375 289.074219c-4.152344-2.398438-9.816406-.605469-13.722656 3.957031v19.371094c.0625.039062.117187.085937.183594.121094 4.882812 2.820312 11.875-.144532 15.613281-6.617188 3.738281-6.476562 2.808593-14.011719-2.074219-16.832031zm0 0" fill="#cfd8dc"/><path d="m151.695312 260.921875c-6.105468-1.636719-12.816406 3.601563-14.988281 11.703125-2.167969 8.097656 1.023438 15.992188 7.132813 17.628906 6.109375 1.636719 12.820312-3.605468 14.988281-11.703125 2.171875-8.097656-1.023437-15.992187-7.132813-17.628906zm0 0" fill="#eceff1"/><path d="m82.132812 156.613281h89.890626c3.375 0 6.113281-2.738281 6.113281-6.113281v-45.03125c0-3.863281-3.132813-6.996094-6.996094-6.996094h-88.128906c-3.863281 0-6.996094 3.132813-6.996094 6.996094v45.03125c0 3.375 2.738281 6.113281 6.117187 6.113281zm0 0" fill="#64b5f6"/><path d="m171.140625 98.472656h-33.003906v18.558594c0 10.816406-8.765625 19.582031-19.582031 19.582031h-42.539063v13.886719c0 3.378906 2.738281 6.113281 6.117187 6.113281h89.890626c3.375 0 6.113281-2.734375 6.113281-6.113281v-45.03125c0-3.863281-3.132813-6.996094-6.996094-6.996094zm0 0" fill="#2196f3"/><path d="m144.632812 98.46875h-33.539062v-45.609375h33.539062zm0 0" fill="#eceff1"/><path d="m129.628906 52.859375v20.832031c0 8.164063-6.617187 14.78125-14.78125 14.78125h-3.757812v10h33.539062v-45.613281zm0 0" fill="#b0bec5"/><path d="m270.820312 0h-194.234374c-10.761719 0-19.519532 8.757812-19.519532 19.519531 0 10.765625 8.757813 19.519531 19.519532 19.519531h10.410156c2.132812 0 3.871094 1.738282 3.871094 3.875 0 5.484376 4.460937 9.945313 9.945312 9.945313h56.0625c5.480469 0 9.941406-4.460937 9.941406-9.945313 0-2.136718 1.738282-3.875 3.875-3.875h63.019532c1.386718 5.515626 6.386718 9.613282 12.324218 9.613282h14.636719c5.9375 0 10.9375-4.097656 12.320313-9.613282h9.117187c6.023437 0 10.925781-4.898437 10.925781-10.925781v-5.894531c.003906-12.25-9.964844-22.21875-22.214844-22.21875zm0 0" fill="#64b5f6"/><path d="m271.835938.0273438c.777343 2.2539062 1.203124 4.6718752 1.203124 7.1914062v5.894531c0 6.023438-4.902343 10.925781-10.929687 10.925781h-111.417969c-2.136718 0-3.875 1.738282-3.875 3.875 0 5.484376-4.457031 9.945313-9.941406 9.945313h-66.960938c2.082032.761719 4.328126 1.179687 6.675782 1.179687h10.40625c2.136718 0 3.875 1.738282 3.875 3.875 0 5.484376 4.457031 9.945313 9.941406 9.945313h56.0625c5.484375 0 9.941406-4.460937 9.941406-9.945313 0-2.136718 1.738282-3.875 3.875-3.875h63.023438c1.382812 5.515626 6.382812 9.613282 12.320312 9.613282h14.636719c5.9375 0 10.9375-4.097656 12.320313-9.613282h9.117187c6.023437 0 10.925781-4.898437 10.925781-10.925781v-5.894531c.003906-11.910156-9.417968-21.660156-21.199218-22.1914062zm0 0" fill="#2196f3"/><path d="m343.15625 305.746094h-108.539062c-2.53125 0-4.585938-2.054688-4.585938-4.585938v-25.164062c0-2.53125 2.054688-4.585938 4.585938-4.585938h108.539062c2.53125 0 4.585938 2.054688 4.585938 4.585938v25.164062c0 2.53125-2.054688 4.585938-4.585938 4.585938zm0 0" fill="#64b5f6"/><path d="m343.15625 271.410156h-35.414062v9.75c0 2.53125-2.054688 4.585938-4.585938 4.585938h-73.125v15.414062c0 2.53125 2.054688 4.585938 4.585938 4.585938h108.539062c2.53125 0 4.585938-2.054688 4.585938-4.585938v-25.164062c0-2.53125-2.054688-4.585938-4.585938-4.585938zm0 0" fill="#2196f3"/><path d="m340.027344 305.746094h-102.285156l9.15625 149.363281c.113281 1.859375 1.65625 3.3125 3.519531 3.3125h76.933593c1.867188 0 3.40625-1.449219 3.523438-3.3125zm0 0" fill="#64b5f6"/><path d="m298.800781 305.746094-6.734375 109.890625c-.785156 12.804687-11.394531 22.785156-24.222656 22.785156h-21.96875l1.023438 16.6875c.113281 1.859375 1.65625 3.3125 3.519531 3.3125h76.933593c1.867188 0 3.40625-1.449219 3.523438-3.3125l9.152344-149.363281zm0 0" fill="#2196f3"/><path d="m321.164062 512h-64.558593c-3.234375 0-5.859375-2.621094-5.859375-5.859375v-47.515625h76.277344v47.515625c0 3.238281-2.621094 5.859375-5.859376 5.859375zm0 0" fill="#e57373"/><path d="m297.023438 458.625v17.5c0 3.246094-2.628907 5.875-5.875 5.875h-40.402344v24.140625c0 3.238281 2.625 5.859375 5.859375 5.859375h64.558593c3.238282 0 5.859376-2.621094 5.859376-5.859375v-47.515625zm0 0" fill="#f44336"/><path d="m321.164062 512h-64.558593c-3.234375 0-5.859375-2.621094-5.859375-5.859375v-14.699219h76.277344v14.699219c0 3.238281-2.621094 5.859375-5.859376 5.859375zm0 0" fill="#e57373"/><path d="m297.023438 491.441406v4.699219c0 3.238281-2.621094 5.859375-5.859376 5.859375h-40.417968v4.140625c0 3.238281 2.625 5.859375 5.859375 5.859375h64.558593c3.238282 0 5.859376-2.621094 5.859376-5.859375v-14.699219zm0 0" fill="#f44336"/><path d="m299.683594 84.566406c0 7.816406-6.332032 14.148438-14.144532 14.148438-7.816406 0-14.148437-6.332032-14.148437-14.148438 0-7.8125 6.332031-14.144531 14.148437-14.144531 7.8125 0 14.144532 6.332031 14.144532 14.144531zm0 0" fill="#e3f2fd"/><path d="m306.171875 167.839844c0 6.527344-5.292969 11.816406-11.816406 11.816406-6.527344 0-11.816407-5.289062-11.816407-11.816406s5.289063-11.816406 11.816407-11.816406c6.523437 0 11.816406 5.289062 11.816406 11.816406zm0 0" fill="#e3f2fd"/><path d="m260.347656 127.804688c0 8.691406-7.046875 15.738281-15.738281 15.738281s-15.738281-7.046875-15.738281-15.738281c0-8.691407 7.046875-15.738282 15.738281-15.738282s15.738281 7.046875 15.738281 15.738282zm0 0" fill="#e3f2fd"/><path d="m294.355469 156.023438c-.117188 0-.230469.011718-.347657.015624 1.359376 1.925782 2.164063 4.269532 2.164063 6.800782 0 6.410156-5.105469 11.613281-11.472656 11.800781 2.140625 3.03125 5.664062 5.015625 9.65625 5.015625 6.523437 0 11.816406-5.289062 11.816406-11.816406s-5.292969-11.816406-11.816406-11.816406zm0 0" fill="#90caf9"/><path d="m289.683594 79.566406c0 7.816406-6.332032 14.148438-14.144532 14.148438-.277343 0-.546874-.023438-.820312-.039063 2.59375 3.078125 6.476562 5.042969 10.820312 5.042969 7.8125 0 14.144532-6.335938 14.144532-14.148438 0-7.539062-5.894532-13.679687-13.324219-14.105468 2.070313 2.460937 3.324219 5.632812 3.324219 9.101562zm0 0" fill="#90caf9"/><path d="m246.164062 112.144531c2.589844 2.804688 4.183594 6.542969 4.183594 10.660157 0 8.691406-7.046875 15.738281-15.738281 15.738281-.523437 0-1.042969-.027344-1.554687-.078125 2.875 3.113281 6.980468 5.078125 11.554687 5.078125 8.691406 0 15.738281-7.046875 15.738281-15.738281 0-8.167969-6.222656-14.878907-14.183594-15.660157zm0 0" fill="#90caf9"/><path d="m169.878906 427.566406h-84.480468c-4.140626 0-7.5-3.355468-7.5-7.5 0-4.140625 3.359374-7.5 7.5-7.5h84.480468c4.140625 0 7.5 3.359375 7.5 7.5 0 4.144532-3.359375 7.5-7.5 7.5zm7.5-35.96875c0-4.144531-3.359375-7.5-7.5-7.5h-84.480468c-4.140626 0-7.5 3.355469-7.5 7.5 0 4.140625 3.359374 7.5 7.5 7.5h84.480468c4.140625 0 7.5-3.359375 7.5-7.5zm0 0" fill="#eceff1"/><path d="m177.378906 420.066406c0-4.140625-3.359375-7.5-7.5-7.5h-14.808594c-4.917968 5.925782-10.820312 11.007813-17.449218 15h32.253906c4.144531 0 7.503906-3.355468 7.503906-7.5zm0 0" fill="#cfd8dc"/><path d="m169.878906 399.097656c4.140625 0 7.5-3.359375 7.5-7.5 0-4.144531-3.359375-7.5-7.5-7.5h-.746094c-1.199218 5.253906-2.992187 10.28125-5.320312 15zm0 0" fill="#cfd8dc"/><path d="m109.375 156.613281h-15v-29.070312c0-4.144531 3.355469-7.5 7.5-7.5 4.140625 0 7.5 3.355469 7.5 7.5zm51.53125 0v-29.070312c0-4.144531-3.359375-7.5-7.5-7.5-4.144531 0-7.5 3.355469-7.5 7.5v29.070312zm-25.769531 0v-29.070312c0-4.144531-3.355469-7.5-7.5-7.5-4.140625 0-7.5 3.355469-7.5 7.5v29.070312zm0 0" fill="#2196f3"/><path d="m94.375 136.613281h15v20h-15zm0 0" fill="#1976d2"/><path d="m153.40625 120.042969c-4.144531 0-7.5 3.355469-7.5 7.5v29.070312h15v-29.070312c0-4.144531-3.359375-7.5-7.5-7.5zm0 0" fill="#1976d2"/><path d="m135.132812 127.421875c-3.199218 5.09375-8.667968 8.605469-14.996093 9.113281v20.078125h15v-29.070312c0-.039063-.003907-.078125-.003907-.121094zm0 0" fill="#1976d2"/></svg>